<svg xmlns="http://www.w3.org/2000/svg" xmlns:xlink="http://www.w3.org/1999/xlink" viewBox="0 0 500 500" width="500" height="500" preserveAspectRatio="xMidYMid meet" style="width: 100%; height: 100%; transform: translate3d(0px, 0px, 0px); content-visibility: visible;"><defs><clipPath id="__lottie_element_2633"><rect width="500" height="500" x="0" y="0"></rect></clipPath></defs><g clip-path="url(#__lottie_element_2633)"><g transform="matrix(1.0019534826278687,0,0,1.0019534826278687,149.55416870117188,144.7002410888672)" opacity="1" style="display: block;"><g opacity="1" transform="matrix(1,0,0,1,100.25,62.45800018310547)"><path fill="rgb(135,129,222)" fill-opacity="1" d=" M-100,-47.792999267578125 C-100,-47.792999267578125 -100,13.26200008392334 -100,13.26200008392334 C-100,32.33300018310547 -55.22800064086914,47.792999267578125 0,47.792999267578125 C55.22800064086914,47.792999267578125 100,32.33300018310547 100,13.26200008392334 C100,13.26200008392334 100,-47.792999267578125 100,-47.792999267578125 C100,-47.792999267578125 -100,-47.792999267578125 -100,-47.792999267578125z"></path></g><g opacity="1" transform="matrix(1,0,0,1,100.25,38.87099838256836)"><path fill="rgb(124,89,185)" fill-opacity="1" d=" M-100,-38.62099838256836 C-100,-38.62099838256836 -100,4.090000152587891 -100,4.090000152587891 C-100,23.160999298095703 -55.22800064086914,38.62099838256836 0,38.62099838256836 C55.22800064086914,38.62099838256836 100,23.160999298095703 100,4.090000152587891 C100,4.090000152587891 100,-38.62099838256836 100,-38.62099838256836 C100,-38.62099838256836 -100,-38.62099838256836 -100,-38.62099838256836z"></path></g></g><g transform="matrix(1.0121206045150757,0,0,1.0121206045150757,72.62586212158203,104.16204071044922)" opacity="1" style="display: block;"><g opacity="1" transform="matrix(1,0,0,1,175.25,45.25)"><path fill="rgb(135,129,222)" fill-opacity="1" d=" M0,-45 C0,-45 -175,0 -175,0 C-175,0 0,45 0,45 C0,45 175,0 175,0 C175,0 0,-45 0,-45z"></path></g></g><g transform="matrix(1.007058024406433,-0.10110510885715485,0.10110510885715485,1.007058024406433,247.00540161132812,181.0963592529297)" opacity="1" style="display: block;"><g opacity="1" transform="matrix(1,0,0,1,0,0)"><path stroke-linecap="round" stroke-linejoin="round" fill-opacity="0" stroke="rgb(255,185,82)" stroke-opacity="1" stroke-width="10.938" d=" M46.89699935913086,5.468999862670898 C46.89699935913086,5.468999862670898 46.89699935913086,62.36199951171875 46.89699935913086,62.36199951171875"></path></g><g opacity="1" transform="matrix(1,0,0,1,46.895999908447266,81.91300201416016)"><path fill="rgb(103,83,140)" fill-opacity="1" d=" M19.552000045776367,0 C19.552000045776367,10.79800033569336 10.79800033569336,19.551000595092773 0,19.551000595092773 C-10.79800033569336,19.551000595092773 -19.552000045776367,10.79800033569336 -19.552000045776367,0 C-19.552000045776367,-10.79800033569336 -10.79800033569336,-19.551000595092773 0,-19.551000595092773 C10.79800033569336,-19.551000595092773 19.552000045776367,-10.79800033569336 19.552000045776367,0z"></path><path stroke-linecap="round" stroke-linejoin="round" fill-opacity="0" stroke="rgb(255,185,82)" stroke-opacity="1" stroke-width="10.938" d=" M19.552000045776367,0 C19.552000045776367,10.79800033569336 10.79800033569336,19.551000595092773 0,19.551000595092773 C-10.79800033569336,19.551000595092773 -19.552000045776367,10.79800033569336 -19.552000045776367,0 C-19.552000045776367,-10.79800033569336 -10.79800033569336,-19.551000595092773 0,-19.551000595092773 C10.79800033569336,-19.551000595092773 19.552000045776367,-10.79800033569336 19.552000045776367,0z"></path></g></g><g transform="matrix(1.0121206045150757,0,0,1.0121206045150757,244.4647216796875,132.95382690429688)" opacity="1" style="display: block;"><g opacity="1" transform="matrix(1,0,0,1,27.593000411987305,26.895999908447266)"><path stroke-linecap="round" stroke-linejoin="round" fill-opacity="0" stroke="rgb(255,185,82)" stroke-opacity="1" stroke-width="10.938" d=" M-22.124000549316406,-21.427000045776367 C-22.124000549316406,-21.427000045776367 22.124000549316406,21.427000045776367 22.124000549316406,21.427000045776367"></path></g></g><g transform="matrix(1.002634882926941,0.06478990614414215,-0.06478990614414215,1.002634882926941,78.97688293457031,264.5618896484375)" opacity="1" style="display: block;"><g opacity="1" transform="matrix(1,0,0,1,18.229999542236328,50.775001525878906)"><path fill="rgb(137,130,223)" fill-opacity="1" d=" M-0.8700000047683716,50.525001525878906 C-0.8700000047683716,50.525001525878906 0.8700000047683716,50.525001525878906 0.8700000047683716,50.525001525878906 C10.281000137329102,50.525001525878906 17.979999542236328,42.82500076293945 17.979999542236328,33.415000915527344 C17.979999542236328,33.415000915527344 17.979999542236328,-33.415000915527344 17.979999542236328,-33.415000915527344 C17.979999542236328,-42.82500076293945 10.281000137329102,-50.525001525878906 0.8700000047683716,-50.525001525878906 C0.8700000047683716,-50.525001525878906 -0.8700000047683716,-50.525001525878906 -0.8700000047683716,-50.525001525878906 C-10.281000137329102,-50.525001525878906 -17.979999542236328,-42.82500076293945 -17.979999542236328,-33.415000915527344 C-17.979999542236328,-33.415000915527344 -17.979999542236328,33.415000915527344 -17.979999542236328,33.415000915527344 C-17.979999542236328,42.82500076293945 -10.281000137329102,50.525001525878906 -0.8700000047683716,50.525001525878906z"></path></g><g opacity="1" transform="matrix(1,0,0,1,18.229999542236328,82.76499938964844)"><path fill="rgb(255,255,255)" fill-opacity="1" d=" M7.184000015258789,0 C7.184000015258789,3.9670000076293945 3.9679999351501465,7.184000015258789 0,7.184000015258789 C-3.9679999351501465,7.184000015258789 -7.184000015258789,3.9670000076293945 -7.184000015258789,0 C-7.184000015258789,-3.9679999351501465 -3.9679999351501465,-7.184000015258789 0,-7.184000015258789 C3.9679999351501465,-7.184000015258789 7.184000015258789,-3.9679999351501465 7.184000015258789,0z"></path></g><g opacity="1" transform="matrix(1,0,0,1,200.67100524902344,86.24700164794922)"><path fill="rgb(180,199,240)" fill-opacity="1" d=" M65.06900024414062,-24.652000427246094 C58.86399841308594,-21.402999877929688 52.4379997253418,-18.03700065612793 45.819000244140625,-14.64900016784668 C45.8120002746582,-14.645000457763672 45.803001403808594,-14.647000312805176 45.79600143432617,-14.642999649047852 C45.76499938964844,-14.628000259399414 45.74800109863281,-14.597999572753906 45.71699905395508,-14.583000183105469 C29.819000244140625,-6.826000213623047 12.871000289916992,-2.9639999866485596 -5.965000152587891,-2.9639999866485596 C-20.509000778198242,-2.9639999866485596 -36.17900085449219,-5.269999980926514 -53.35499954223633,-9.850000381469727 C-56.62799835205078,-10.727999687194824 -58.5890007019043,-14.116000175476074 -57.71900177001953,-17.426000595092773 C-56.85599899291992,-20.736000061035156 -53.474998474121094,-22.690000534057617 -50.2140007019043,-21.83099937438965 C-13.85200023651123,-12.118000030517578 14.901000022888184,-13.357000350952148 40.233001708984375,-25.68199920654297 C40.233001708984375,-25.68199920654297 40.237998962402344,-25.68600082397461 40.237998962402344,-25.68600082397461 C51.42499923706055,-31.482999801635742 51.68199920654297,-33.60599899291992 52.18600082397461,-37.84199905395508 C53.025001525878906,-44.8489990234375 51.922000885009766,-50.053001403808594 48.90700149536133,-53.31399917602539 C44.40999984741211,-58.17900085449219 36.5989990234375,-57.847999572753906 36.50299835205078,-57.854000091552734 C-22.402999877929688,-56.82500076293945 -33.16999816894531,-63.196998596191406 -45.58599853515625,-70.55500030517578 C-56.81999969482422,-77.20500183105469 -69.5530014038086,-84.7490005493164 -138.63299560546875,-85.98999786376953 C-138.72300720214844,-85.98999786376953 -138.8070068359375,-85.99700164794922 -138.89700317382812,-85.99700164794922 C-142.66200256347656,-85.99700164794922 -146.21099853515625,-84.5260009765625 -148.91400146484375,-81.84600067138672 C-151.69000244140625,-79.09300231933594 -153.218994140625,-75.41999816894531 -153.218994140625,-71.4990005493164 C-153.218994140625,-71.4990005493164 -153.218994140625,4.247000217437744 -153.218994140625,4.247000217437744 C-153.218994140625,10.081000328063965 -150.01699829101562,15.279000282287598 -144.8560028076172,17.820999145507812 C-110.58899688720703,34.67900085449219 -6.2769999504089355,85.99600219726562 140.60499572753906,-27.986000061035156 C140.7729949951172,-28.113000869750977 140.94700622558594,-28.23900032043457 141.13299560546875,-28.347999572753906 C142.36199951171875,-29.128999710083008 153.218994140625,-36.35499954223633 148.31500244140625,-45.29800033569336 C138.99899291992188,-62.28900146484375 110.61900329589844,-48.51100158691406 65.06900024414062,-24.652000427246094z"></path></g></g></g></svg>