<svg xmlns="http://www.w3.org/2000/svg" width="430" height="430" fill="none" viewBox="0 0 430 430"><path fill="url(#TrXfpo7Jxpa)" d="M221.005 230a6 6 0 1 0-12 0v9.885h-1.519c-14.195 0-25.711 11.497-25.711 25.7 0 14.2 11.512 25.711 25.711 25.711h15.089c7.553 0 13.671 6.136 13.65 13.694-.022 7.639-6.263 13.668-13.394 13.615h-.005l-7.531-.065a7 7 0 0 0-.475-.004l-26.412-.227a6 6 0 0 0-.103 12l20.7.178V340a6 6 0 1 0 12 0v-9.41l1.723.015h.005c13.923.108 25.452-11.431 25.491-25.582.04-14.193-11.451-25.727-25.649-25.727h-15.089c-7.572 0-13.711-6.139-13.711-13.711 0-7.568 6.135-13.7 13.711-13.7h7.166a6 6 0 0 0 .706 0h22.673a6 6 0 1 0 0-12h-17.026z"/><path fill="url(#fO4PCCnNrbb)" fill-rule="evenodd" d="M119 125c0-53.02 42.981-96 96-96s96 42.98 96 96v59h34a6 6 0 0 1 6 6v150c0 25.405-20.595 46-46 46H125c-25.405 0-46-20.595-46-46V190a6 6 0 0 1 6-6h34zm180 0v59H131v-59c0-46.392 37.608-84 84-84s84 37.608 84 84M91 196v144c0 18.778 15.222 34 34 34h180c18.778 0 34-15.222 34-34V196z" clip-rule="evenodd"/><defs><linearGradient id="TrXfpo7Jxpa" x1="167.978" x2="357.624" y1="108.281" y2="271.034" gradientUnits="userSpaceOnUse"><stop stop-color="#cb5eee"/><stop offset="1" stop-color="#4be1ec"/></linearGradient><linearGradient id="fO4PCCnNrbb" x1="167.978" x2="357.624" y1="108.281" y2="271.034" gradientUnits="userSpaceOnUse"><stop stop-color="#cb5eee"/><stop offset="1" stop-color="#4be1ec"/></linearGradient></defs></svg>